# AST/ASF file generated using VICON BodyLanguage
# -----------------------------------------------
:version 1.10
:name VICON
:units
  mass 1.0
  length 0.45
  angle deg
:documentation
   .ast/.asf automatically generated from VICON data using
   VICON BodyBuilder and BodyLanguage model FoxedUp or BRILLIANT.MOD
:root
   order TX TY TZ RX RY RZ
   axis XYZ
   position 0 0 0  
   orientation 0 0 0 
:bonedata
  begin
     id 1 
     name lhipjoint
     direction 0.567725 -0.736092 0.368589 
     length 2.42353 
     axis 0 0 0  XYZ
  end
  begin
     id 2 
     name lfemur
     direction 0.34202 -0.939693 0  
     length 7.24894  
     axis 0 0 20  XYZ
    dof rx ry rz
    limits (-160.0 20.0)
           (-70.0 70.0)
           (-60.0 70.0)
  end
  begin
     id 3 
     name ltibia
     direction 0.34202 -0.939693 0   
     length 7.6997   
     axis 0 0 20   XYZ
    dof rx
    limits (-10.0 170.0)
  end
  begin
     id 4 
     name lfoot
     direction 0.100767 -0.276854 0.955614   
     length 2.37556   
     axis -90 7.62852e-016 20   XYZ
    dof rx rz
    limits (-45.0 90.0)
           (-70.0 20.0)
  end
  begin
     id 5 
     name ltoes
     direction 1.53592e-011 -4.21894e-011 1   
     length 1.18363   
     axis -90 7.62852e-016 20   XYZ
    dof rx
    limits (-90.0 20.0)
  end
  begin
     id 6 
     name rhipjoint
     direction -0.556459 -0.742938 0.372017   
     length 2.4012  
     axis 0 0 0  XYZ 
  end
  begin
     id 7 
     name rfemur
     direction -0.34202 -0.939693 0   
     length 7.5119   
     axis 0 0 -20   XYZ
    dof rx ry rz
    limits (-160.0 20.0)
           (-70.0 70.0)
           (-70.0 60.0)
  end
  begin
     id 8 
     name rtibia
     direction -0.34202 -0.939693 0   
     length 7.50155   
     axis 0 0 -20   XYZ
    dof rx
    limits (-10.0 170.0)
 end
 begin
     id 9 
     name rfoot
     direction -0.118427 -0.325376 0.938139   
     length 2.32487  
     axis -90 -7.62852e-016 -20   XYZ
    dof rx rz
    limits (-45.0 90.0)
           (-20.0 70.0)
  end
  begin
     id 10 
     name rtoes
     direction -1.53525e-011 -4.21868e-011 1   
     length 1.15233   
     axis -90 -7.62852e-016 -20   XYZ
    dof rx
    limits (-90.0 20.0)
  end
  begin
     id 11 
     name lowerback
     direction 0.0287568 0.999577 -0.00434502   
     length 2.15243   
     axis 0 0 0   XYZ
    dof rx ry rz
    limits (-20.0 45.0)
           (-30.0 30.0)
           (-30.0 30.0)
  end
  begin
     id 12 
     name upperback
     direction 0.0294009 0.99956 0.00404628   
     length 2.15427   
     axis 0 0 0   XYZ
    dof rx ry rz
    limits (-20.0 45.0)
           (-30.0 30.0)
           (-30.0 30.0)
  end
  begin
     id 13 
     name thorax
     direction 0.0151014 0.999868 0.0059419   
     length 2.14898   
     axis 0 0 0   XYZ
    dof rx ry rz
    limits (-20.0 45.0)
           (-30.0 30.0)
           (-30.0 30.0)
  end
  begin
     id 14 
     name lowerneck
     direction -0.0249197 0.989906 0.139515   
     length 1.6861   
     axis 0 0 0   XYZ
    dof rx ry rz
    limits (-20.0 45.0)
           (-30.0 30.0)
           (-30.0 30.0)
  end
  begin
     id 15 
     name upperneck
     direction 0.0438463 0.988795 -0.142693   
     length 1.71276   
     axis 0 0 0   XYZ
    dof rx ry rz
    limits (-20.0 45.0)
           (-30.0 30.0)
           (-30.0 30.0)
  end
  begin
     id 16
     name head
     direction 0.0148499 0.997845 -0.0639186  
     length 1.7209  
     axis 0 0 0   XYZ
    dof rx ry rz
    limits (-20.0 45.0)
           (-30.0 30.0)
           (-30.0 30.0)
  end
  begin
     id 17 
     name lclavicle
     direction 0.940298 0.323464 -0.105876  
     length 3.9048  
     axis 0 0 0   XYZ
    dof ry rz
    limits (-20.0 10.0)
           (0.0 20.0)
  end
  begin
     id 18 
     name lhumerus
     direction 1 -4.48954e-011 -4.9675e-028   
     length 4.6851   
     axis 180 -30 -90   XYZ
    dof rx ry rz
    limits (-60.0 90.0)
           (-90.0 90.0)
           (-90.0 90.0)
  end
  begin
     id 19
     name lradius
     direction 1 -4.48992e-011 -1.03359e-026   
     length 3.39626   
     axis 180 -30 -90   XYZ
    dof rx
    limits (-10.0 170.0)
  end
  begin
     id 20
     name lwrist
     direction 1 -4.48906e-011 -1.67336e-026   
     length 1.69813   
     axis 9.90442e-015 90 90   XYZ
    dof ry
    limits (-180.0 0.0)
 end
  begin
     id 21 
     name lhand
     direction 1 -4.49006e-011 -3.34673e-026   
     length 0.486078   
     axis 2.1355e-014 90 90   XYZ
    dof rx rz
    limits (-90.0 90.0)
           (-45.0 45.0)
  end
  begin
     id 22 
     name lfingers
     direction 1 -4.48992e-011 -6.69345e-026   
     length 0.391889   
     axis 4.27099e-014 90 90   XYZ
    dof rx
    limits (0.0 90.0)
  end
  begin
     id 23
     name lthumb
     direction 0.707107 -6.34926e-011 0.707107   
     length 0.562676   
     axis -90 45 2.85299e-015   XYZ
    dof rx rz
    limits (-45.0 45.0)
           (-45.0 45.0)
  end
  begin
     id 24 
     name rclavicle
     direction -0.882459 0.414895 -0.221648   
     length 3.44646  
     axis 0 0 0   XYZ 
    dof ry rz
    limits (-10.0 20.0)
           (-20.0 0.0)
  end
  begin
     id 25 
     name rhumerus
     direction -1 -4.48962e-011 -2.37984e-027  
     length 5.55576   
     axis 180 30 90   XYZ
    dof rx ry rz
    limits (-90.0 60.0)
           (-90.0 90.0)
           (-90.0 90.0)
  end
  begin
     id 26 
     name rradius
     direction -1 -4.48982e-011 -6.86791e-027   
     length 3.32774   
     axis 180 30 90   XYZ
    dof rx
    limits (-10.0 170.0)
  end
  begin
     id 27 
     name rwrist
     direction -1 -4.48961e-011 -1.67336e-026   
     length 1.66387   
     axis 9.90442e-015 -90 -90   XYZ
    dof ry
    limits (-180.0 0.0)
  end
  begin
     id 28
     name rhand
     direction -1 -4.4897e-011 -3.34673e-026   
     length 0.507628   
     axis 2.1355e-014 -90 -90   XYZ
    dof rx rz
    limits (-90.0 90.0)
           (-45.0 45.0)
  end
  begin
     id 29
     name rfingers
     direction -1 -4.48854e-011 -6.69345e-026   
     length 0.409263   
     axis 4.27099e-014 -90 -90   XYZ
    dof rx
    limits (0.0 90.0)
  end
  begin
     id 30
     name rthumb
     direction -0.707107 -6.34913e-011 0.707107   
     length 0.587622   
     axis -90 -45 -2.85299e-015   XYZ
    dof rx rz
    limits (-45.0 45.0)
           (-45.0 45.0)
  end
:hierarchy
  begin
    root lhipjoint rhipjoint lowerback
    lhipjoint lfemur
    lfemur ltibia
    ltibia lfoot
    lfoot ltoes
    rhipjoint rfemur
    rfemur rtibia
    rtibia rfoot
    rfoot rtoes
    lowerback upperback
    upperback thorax
    thorax lowerneck lclavicle rclavicle
    lowerneck upperneck
    upperneck head
    lclavicle lhumerus
    lhumerus lradius
    lradius lwrist
    lwrist lhand lthumb
    lhand lfingers
    rclavicle rhumerus
    rhumerus rradius
    rradius rwrist
    rwrist rhand rthumb
    rhand rfingers
  end

#!OML:ASF E:\motion texture\Top Level 1\Subject 1\Session 1\male.ASF
:FULLY-SPECIFIED
:DEGREES
58
root 41.5029 17.7832 6.05995 114.824 -84.944 -104.934
lowerback -5.66936 -0.800348 2.65097
upperback -2.57572 -1.31277 2.51004
thorax 0.527909 -0.699118 1.01271
lowerneck -15.8643 -2.64018 -6.78998
upperneck 21.1291 -3.70022 6.54735
head 9.53809 -1.63227 2.91836
rclavicle -1.23806e-014 1.49089e-014
rhumerus -28.9732 -7.23396 -80.7544
rradius 26.6453
rwrist 8.36594
rhand -12.7633 -26.8131
rfingers 7.12502
rthumb 13.3214 -56.3673
lclavicle -1.23806e-014 1.49089e-014
lhumerus -32.3665 29.1753 76.272
lradius 20.6939
lwrist -15.6635
lhand -8.09614 34.8634
lfingers 7.12502
lthumb 17.8163 64.0673
rfemur -11.8787 3.71116 25.2706
rtibia 17.3772
rfoot -10.2445 -12.4864
rtoes 10.6621
lfemur -7.95483 -4.93839 -12.5322
ltibia 10.8347
lfoot -10.0413 5.4096
ltoes 0.163933
59
root 41.4962 17.7809 6.04914 114.739 -84.9596 -104.827
lowerback -5.6372 -0.825432 2.6347
upperback -2.57307 -1.34334 2.50059
thorax 0.512853 -0.714205 1.01081
lowerneck -15.9063 -2.58011 -6.72085
upperneck 21.2548 -3.63692 6.52728
head 9.58329 -1.60025 2.90954
rclavicle -1.63625e-014 4.1546e-014
rhumerus -29.092 -7.58417 -80.6033
rradius 26.0394
rwrist 8.77892
rhand -12.7319 -26.7928
rfingers 7.12502
rthumb 13.3516 -56.345
lclavicle -1.63625e-014 4.1546e-014
lhumerus -32.4501 30.1403 75.8679
lradius 20.1446
lwrist -15.8784
lhand -8.12644 35.4008
lfingers 7.12502
lthumb 17.7872 64.6073
rfemur -11.937 3.67924 25.2992
rtibia 17.4958
rfoot -10.3366 -12.4615
rtoes 10.6582
lfemur -8.03925 -4.88163 -12.5006
ltibia 10.9962
lfoot -10.1415 5.35479
ltoes 0.107479
60
root 41.489 17.7784 6.03806 114.641 -84.9715 -104.711
lowerback -5.61544 -0.84969 2.62586
upperback -2.5627 -1.37382 2.49076
thorax 0.511344 -0.729109 1.00412
lowerneck -15.954 -2.51786 -6.64799
upperneck 21.3864 -3.5713 6.50577
head 9.63148 -1.56695 2.90001
rclavicle -5.13734e-015 1.53064e-014
rhumerus -29.2003 -7.95363 -80.4436
rradius 25.4293
rwrist 9.20969
rhand -12.7024 -26.7641
rfingers 7.12502
rthumb 13.38 -56.3145
lclavicle -5.13734e-015 1.53064e-014
lhumerus -32.5093 31.0492 75.5088
lradius 19.6435
lwrist -16.0518
lhand -8.15861 35.9357
lfingers 7.12502
lthumb 17.7562 65.145
rfemur -11.9886 3.64792 25.3338
rtibia 17.6107
rfoot -10.4285 -12.4354
rtoes 10.6471
lfemur -8.12918 -4.82155 -12.4638
ltibia 11.1765
lfoot -10.2494 5.29912
ltoes 0.049127
61
root 41.4813 17.7757 6.02671 114.543 -84.9797 -104.596
lowerback -5.59426 -0.873234 2.62111
upperback -2.55302 -1.40368 2.48319
thorax 0.509412 -0.743763 0.997507
lowerneck -15.9977 -2.45231 -6.57582
upperneck 21.5266 -3.5019 6.48368
head 9.68186 -1.53226 2.89107
rclavicle -1.14301e-015 -7.7526e-015
rhumerus -29.3114 -8.33495 -80.2707
rradius 24.8193
rwrist 9.65502
rhand -12.6724 -26.7385
rfingers 7.12502
rthumb 13.409 -56.287
lclavicle -1.14301e-015 -7.7526e-015
lhumerus -32.5522 31.8849 75.2034
lradius 19.1957
lwrist -16.1668
lhand -8.18928 36.4641
lfingers 7.12502
lthumb 17.7267 65.6761
rfemur -12.0338 3.6182 25.3738
rtibia 17.7223
rfoot -10.5207 -12.4076
rtoes 10.6348
lfemur -8.2256 -4.75767 -12.4225
ltibia 11.3775
lfoot -10.3655 5.24388
ltoes -0.0145618
62
root 41.4731 17.7728 6.01508 114.436 -84.9843 -104.475
lowerback -5.57433 -0.894644 2.62119
upperback -2.53964 -1.43109 2.47652
thorax 0.51186 -0.757154 0.989208
lowerneck -16.0506 -2.38659 -6.49799
upperneck 21.6769 -3.43207 6.45426
head 9.73746 -1.49762 2.87881
rclavicle -5.42309e-015 1.0138e-014
rhumerus -29.4176 -8.73595 -80.0854
rradius 24.2109
rwrist 10.1171
rhand -12.6427 -26.7084
rfingers 7.12502
rthumb 13.4376 -56.255
lclavicle -5.42309e-015 1.0138e-014
lhumerus -32.5578 32.6235 74.9739
lradius 18.8055
lwrist -16.2012
lhand -8.22448 37.0017
lfingers 7.12502
lthumb 17.6928 66.2167
rfemur -12.0713 3.59029 25.4194
rtibia 17.8296
rfoot -10.6131 -12.3789
rtoes 10.6204
lfemur -8.32852 -4.6895 -12.3766
ltibia 11.6004
lfoot -10.4899 5.18761
ltoes -0.0830054
63
root 41.4643 17.7697 6.00321 114.324 -84.9847 -104.353
lowerback -5.55761 -0.914748 2.62773
upperback -2.5242 -1.45734 2.47099
thorax 0.518096 -0.769968 0.97845
lowerneck -16.1004 -2.31872 -6.41797
upperneck 21.8326 -3.35966 6.42114
head 9.79425 -1.46219 2.86535
rclavicle -1.97542e-015 4.87022e-015
rhumerus -29.5236 -9.15149 -79.8886
rradius 23.6074
rwrist 10.5945
rhand -12.6127 -26.6835
rfingers 7.12502
rthumb 13.4665 -56.2281
lclavicle -1.97542e-015 4.87022e-015
lhumerus -32.5233 33.2479 74.8305
lradius 18.4773
lwrist -16.1344
lhand -8.24519 37.5094
lfingers 7.12502
lthumb 17.6729 66.7263
rfemur -12.1009 3.56394 25.4709
rtibia 17.933
rfoot -10.706 -12.3484
rtoes 10.6054
lfemur -8.43805 -4.61707 -12.3259
ltibia 11.8465
lfoot -10.6224 5.13163
ltoes -0.158383
64
root 41.455 17.7665 5.99107 114.196 -84.9815 -104.219
lowerback -5.53917 -0.93378 2.63826
upperback -2.50805 -1.48238 2.46809
thorax 0.524036 -0.782213 0.968277
lowerneck -16.1548 -2.24928 -6.33767
upperneck 21.9997 -3.28519 6.38566
head 9.85603 -1.42612 2.85149
rclavicle 1.13059e-014 6.85807e-015
rhumerus -29.6289 -9.57953 -79.6786
rradius 23.0109
rwrist 11.0847
rhand -12.5813 -26.6606
rfingers 7.12502
rthumb 13.4968 -56.2033
lclavicle 1.13059e-014 6.85807e-015
lhumerus -32.4394 33.7391 74.7902
lradius 18.2155
lwrist -15.9469
lhand -8.39821 37.8681
lfingers 7.12502
lthumb 17.5257 67.0982
rfemur -12.1225 3.53921 25.5284
rtibia 18.0326
rfoot -10.7995 -12.3175
rtoes 10.5885
lfemur -8.55562 -4.54053 -12.2706
ltibia 12.1175
lfoot -10.7629 5.0746
ltoes -0.238616
65
root 41.4452 17.763 5.97865 114.057 -84.9739 -104.077
lowerback -5.51844 -0.950837 2.653
upperback -2.49119 -1.505 2.46781
thorax 0.529393 -0.79328 0.958621
lowerneck -16.2125 -2.17911 -6.25598
upperneck 22.1766 -3.20942 6.34516
head 9.92196 -1.38997 2.83598
rclavicle 6.23687e-015 1.37161e-014
rhumerus -29.7347 -10.0199 -79.4558
rradius 22.4235
rwrist 11.5861
rhand -12.5514 -26.6334
rfingers 7.12502
rthumb 13.5256 -56.1741
lclavicle 6.23687e-015 1.37161e-014
lhumerus -32.2962 34.0744 74.8685
lradius 18.0237
lwrist -15.6127
lhand -8.42383 38.3484
lfingers 7.12502
lthumb 17.501 67.5806
rfemur -12.135 3.51752 25.5926
rtibia 18.1273
rfoot -10.8931 -12.2873
rtoes 10.5719
lfemur -8.68104 -4.45957 -12.2096
ltibia 12.4152
lfoot -10.9108 5.01731
ltoes -0.325609
66
root 41.4348 17.7594 5.96598 113.917 -84.9626 -103.938
lowerback -5.49521 -0.966242 2.67502
upperback -2.4756 -1.52567 2.46764
thorax 0.531858 -0.803475 0.945204
lowerneck -16.2674 -2.10676 -6.17348
upperneck 22.3626 -3.13175 6.30409
head 9.99074 -1.35321 2.8206
rclavicle 2.29472e-014 -8.34896e-015
rhumerus -29.8445 -10.472 -79.2235
rradius 21.8479
rwrist 12.0973
rhand -12.5199 -26.6136
rfingers 7.12502
rthumb 13.556 -56.1523
lclavicle 2.29472e-014 -8.34896e-015
lhumerus -32.0915 34.2352 75.07
lradius 17.906
lwrist -15.1137
lhand -8.44788 38.825
lfingers 7.12502
lthumb 17.4778 68.0593
rfemur -12.1382 3.49907 25.6623
rtibia 18.2166
rfoot -10.9863 -12.2569
rtoes 10.5575
lfemur -8.81468 -4.37466 -12.1448
ltibia 12.7401
lfoot -11.0654 4.96073
ltoes -0.423332
67
root 41.4238 17.7556 5.95307 113.776 -84.9464 -103.802
lowerback -5.46645 -0.979193 2.70264
upperback -2.46059 -1.54317 2.46968
thorax 0.530542 -0.812162 0.931246
lowerneck -16.3301 -2.03453 -6.08875
upperneck 22.5616 -3.05383 6.25697
head 10.0658 -1.31686 2.80296
rclavicle -1.14363e-014 3.98563e-014
rhumerus -29.9547 -10.9341 -78.9803
rradius 21.2853
rwrist 12.6162
rhand -12.5092 -26.571
rfingers 7.12502
rthumb 13.5662 -56.109
lclavicle -1.14363e-014 3.98563e-014
lhumerus -31.8187 34.215 75.4019
lradius 17.8644
lwrist -14.4423
lhand -8.45401 39.2812
lfingers 7.12502
lthumb 17.4719 68.516
rfemur -12.1339 3.48385 25.739
rtibia 18.303
rfoot -11.08 -12.2269
rtoes 10.5425
lfemur -8.95849 -4.28621 -12.0742
ltibia 13.0946
lfoot -11.2257 4.90532
ltoes -0.532374
68
root 41.4122 17.7516 5.93991 113.631 -84.9262 -103.665
lowerback -5.43276 -0.990286 2.73553
upperback -2.44851 -1.55824 2.47374
thorax 0.523379 -0.819776 0.916707
lowerneck -16.389 -1.96136 -6.0033
upperneck 22.7699 -2.97469 6.20507
head 10.1437 -1.28074 2.78386
rclavicle -3.78933e-016 9.93923e-016
rhumerus -30.0705 -11.4009 -78.7272
rradius 20.7395
rwrist 13.1368
rhand -12.4678 -26.5738
rfingers 7.12502
rthumb 13.6061 -56.1092
lclavicle -3.78933e-016 9.93923e-016
lhumerus -31.4816 33.9929 75.869
lradius 17.9066
lwrist -13.575
lhand -8.45403 39.7403
lfingers 7.12502
lthumb 17.4719 68.9751
rfemur -12.1209 3.47168 25.8218
rtibia 18.3852
rfoot -11.1737 -12.1977
rtoes 10.5262
lfemur -9.11335 -4.19377 -11.9992
ltibia 13.4812
lfoot -11.392 4.85018
ltoes -0.650315
69
root 41.4001 17.7475 5.92648 113.478 -84.9026 -103.524
lowerback -5.40362 -0.998917 2.77456
upperback -2.43032 -1.57065 2.47779
thorax 0.524851 -0.825948 0.898713
lowerneck -16.4574 -1.88854 -5.91673
upperneck 22.986 -2.89636 6.1534
head 10.2266 -1.24483 2.76472
rclavicle -1.88224e-014 -5.86415e-015
rhumerus -30.1768 -11.8819 -78.4685
rradius 20.2085
rwrist 13.6647
rhand -12.4521 -26.5363
rfingers 7.12502
rthumb 13.6213 -56.0706
lclavicle -1.88224e-014 -5.86415e-015
lhumerus -31.0663 33.5699 76.4709
lradius 18.0328
lwrist -12.5167
lhand -8.44349 40.1874
lfingers 7.12502
lthumb 17.4821 69.4214
rfemur -12.0988 3.46265 25.9104
rtibia 18.4631
rfoot -11.2672 -12.1706
rtoes 10.5072
lfemur -9.28023 -4.09619 -11.9199
ltibia 13.9013
lfoot -11.5623 4.79549
ltoes -0.786305
